<svg xmlns="http://www.w3.org/2000/svg" xmlns:xlink="http://www.w3.org/1999/xlink" width="500" zoomAndPan="magnify" viewBox="0 0 375 374.999991" height="500" preserveAspectRatio="xMidYMid meet" version="1.0"><defs><clipPath id="661c91b1fd"><path d="M 13.261719 18.199219 L 362 18.199219 L 362 356.449219 L 13.261719 356.449219 Z M 13.261719 18.199219 " clip-rule="nonzero"/></clipPath></defs><g clip-path="url(#661c91b1fd)"><path fill="#ffffff" d="M 136.59375 107.519531 L 238.683594 107.519531 C 250.089844 107.519531 259.417969 116.835938 259.417969 128.21875 L 259.417969 156.375 L 260.40625 156.359375 C 262.535156 156.335938 264.449219 157.679688 265.132812 159.695312 L 273.796875 185.0625 L 294.148438 118.878906 C 294.945312 116.28125 297.703125 114.824219 300.304688 115.621094 C 301.800781 116.082031 302.988281 117.210938 303.511719 118.683594 L 320.882812 167.695312 L 329.472656 157.851562 C 330.53125 156.636719 332.058594 156.0625 333.558594 156.171875 L 357.03125 155.945312 C 359.75 155.925781 361.972656 158.105469 361.992188 160.820312 C 362.015625 163.535156 359.828125 165.75 357.109375 165.773438 L 335.476562 165.980469 L 322.777344 180.53125 C 322.238281 181.15625 321.527344 181.644531 320.691406 181.9375 C 318.125 182.84375 315.304688 181.496094 314.398438 178.933594 L 299.1875 136.015625 L 278.816406 202.269531 C 278.410156 203.820312 277.257812 205.144531 275.621094 205.695312 C 273.042969 206.570312 270.242188 205.1875 269.367188 202.613281 L 259.421875 173.480469 L 259.421875 227.144531 C 259.421875 238.371094 250.339844 247.589844 239.148438 247.839844 C 237.15625 247.882812 235.539062 246.304688 235.539062 244.316406 L 235.539062 182.589844 C 235.539062 179.867188 233.328125 177.65625 230.597656 177.65625 C 227.867188 177.65625 225.65625 179.867188 225.65625 182.589844 L 225.65625 349.402344 C 225.65625 353.285156 222.484375 356.449219 218.597656 356.449219 L 199.640625 356.449219 C 195.75 356.449219 192.578125 353.285156 192.578125 349.402344 L 192.578125 248.527344 C 192.578125 245.800781 190.367188 243.59375 187.636719 243.59375 C 184.910156 243.59375 182.695312 245.800781 182.695312 248.527344 L 182.695312 349.402344 C 182.695312 353.285156 179.523438 356.449219 175.636719 356.449219 L 156.679688 356.449219 C 152.792969 356.449219 149.621094 353.285156 149.621094 349.402344 L 149.621094 182.09375 C 149.621094 179.371094 147.410156 177.160156 144.679688 177.160156 C 141.949219 177.160156 139.738281 179.371094 139.738281 182.09375 L 139.738281 244.320312 C 139.738281 246.308594 138.121094 247.886719 136.128906 247.839844 C 124.9375 247.59375 115.855469 238.375 115.855469 227.148438 L 115.855469 165.9375 L 109.398438 165.984375 L 96.703125 180.53125 C 96.703125 180.53125 94.8125 181.871094 94.617188 181.941406 C 92.050781 182.84375 89.230469 181.496094 88.324219 178.933594 L 73.113281 136.015625 L 52.738281 202.269531 C 52.335938 203.820312 51.183594 205.144531 49.546875 205.699219 C 46.96875 206.570312 44.167969 205.1875 43.292969 202.613281 L 30.878906 166.253906 L 18.285156 166.484375 C 15.566406 166.527344 13.328125 164.363281 13.285156 161.648438 C 13.242188 158.933594 15.410156 156.699219 18.128906 156.65625 L 34.3125 156.359375 C 36.503906 156.324219 38.390625 157.726562 39.058594 159.695312 L 47.722656 185.0625 L 68.074219 118.878906 C 68.871094 116.28125 71.628906 114.824219 74.230469 115.621094 C 75.785156 116.097656 76.929688 117.269531 77.429688 118.6875 L 94.808594 167.695312 L 103.398438 157.851562 C 104.460938 156.632812 105.996094 156.0625 107.496094 156.171875 L 115.859375 156.109375 L 115.859375 128.21875 C 115.855469 116.832031 125.1875 107.519531 136.59375 107.519531 Z M 259.417969 156.375 L 237.597656 156.660156 C 234.878906 156.691406 232.703125 158.914062 232.734375 161.628906 C 232.765625 164.34375 234.996094 166.515625 237.714844 166.484375 L 256.945312 166.234375 L 259.421875 173.484375 L 259.421875 156.375 Z M 115.855469 165.9375 L 137.640625 165.773438 C 140.359375 165.761719 142.554688 163.554688 142.542969 160.839844 C 142.53125 158.125 140.320312 155.933594 137.601562 155.945312 L 115.855469 156.109375 Z M 191.585938 144.765625 C 191.027344 145.625 189.765625 145.625 189.203125 144.765625 C 186.375 140.414062 183.238281 138.242188 177.664062 138.242188 C 170.636719 138.242188 164.933594 143.320312 164.933594 149.582031 C 164.933594 160.640625 177.042969 171.699219 189.449219 182.757812 C 189.992188 183.242188 190.800781 183.242188 191.34375 182.757812 C 203.75 171.699219 215.859375 160.640625 215.859375 149.582031 C 215.859375 143.320312 210.15625 138.242188 203.128906 138.242188 C 197.550781 138.238281 194.417969 140.414062 191.585938 144.765625 Z M 187.636719 18.199219 C 206.28125 18.199219 221.394531 33.285156 221.394531 51.894531 C 221.394531 70.507812 206.28125 85.59375 187.636719 85.59375 C 168.996094 85.59375 153.882812 70.507812 153.882812 51.894531 C 153.882812 33.285156 168.996094 18.199219 187.636719 18.199219 Z M 187.636719 18.199219 " fill-opacity="1" fill-rule="evenodd"/></g></svg>