<?xml version="1.0" standalone="no"?>
<!DOCTYPE svg PUBLIC "-//W3C//DTD SVG 20010904//EN"
 "http://www.w3.org/TR/2001/REC-SVG-20010904/DTD/svg10.dtd">
<svg version="1.0" xmlns="http://www.w3.org/2000/svg"
 width="700.000000pt" height="700.000000pt" viewBox="0 0 700.000000 700.000000"
 preserveAspectRatio="xMidYMid meet">
<metadata>
Created by potrace 1.14, written by Peter Selinger 2001-2017
</metadata>
<g transform="translate(0.000000,700.000000) scale(0.100000,-0.100000)"
fill="#000000" stroke="none">
<path d="M3420 6657 c-3 -3 -25 -8 -50 -12 -87 -13 -221 -82 -296 -154 -160
-152 -230 -365 -189 -578 8 -42 24 -95 35 -118 11 -23 20 -45 20 -49 0 -5 20
-37 45 -71 117 -164 293 -262 487 -270 419 -17 737 364 643 771 -47 205 -220
390 -423 455 -63 19 -260 39 -272 26z"/>
<path d="M2565 4989 c-105 -5 -127 -9 -179 -34 -65 -31 -145 -104 -171 -155
-47 -90 -48 -102 -50 -412 -3 -270 -1 -298 14 -299 9 -1 106 -1 217 0 l201 2
31 -30 c34 -31 40 -62 21 -104 -21 -47 -40 -50 -269 -52 l-215 -2 0 -609 c0
-578 1 -612 19 -661 53 -142 201 -253 340 -256 39 -1 52 3 67 22 18 22 19 50
19 623 0 615 1 626 39 655 48 37 140 -5 142 -64 0 -15 1 -733 1 -1595 1 -1728
-4 -1609 62 -1649 28 -17 54 -19 246 -19 236 0 249 3 287 59 l23 34 0 974 0
975 29 29 c38 38 87 39 125 4 14 -13 27 -28 27 -32 1 -4 2 -444 3 -978 1 -928
2 -971 20 -1001 37 -61 51 -64 296 -64 l222 0 39 39 c30 29 39 47 39 72 1 19
1 737 1 1596 1 1522 1 1563 20 1587 27 35 68 47 106 31 59 -25 58 -8 59 -650
0 -324 4 -599 8 -611 16 -52 115 -51 220 0 111 54 188 157 213 283 3 15 5 257
6 536 0 279 3 504 7 500 4 -4 28 -71 54 -148 140 -420 145 -429 217 -427 52 1
73 34 117 177 22 72 68 218 101 325 33 107 76 247 95 310 19 63 41 135 49 160
8 25 29 92 47 150 54 178 52 174 60 159 4 -8 49 -131 100 -274 50 -143 113
-318 138 -390 48 -135 75 -175 118 -175 45 0 70 19 158 121 50 57 98 112 107
121 10 10 24 27 32 38 14 20 25 21 236 24 220 3 222 3 246 27 28 28 36 63 23
101 -19 55 -33 57 -305 55 -164 -2 -255 -7 -269 -15 -11 -6 -32 -26 -46 -44
-14 -18 -37 -44 -49 -58 -13 -13 -38 -41 -56 -62 l-32 -38 -19 52 c-18 49
-138 386 -253 713 -62 176 -67 185 -106 202 -28 11 -38 11 -67 -1 -19 -8 -39
-23 -45 -34 -6 -11 -45 -132 -86 -269 -42 -136 -85 -275 -95 -308 -11 -33 -38
-121 -61 -195 -22 -74 -64 -211 -92 -303 -39 -128 -54 -165 -62 -154 -5 8 -43
114 -84 235 -41 121 -82 230 -91 242 -8 11 -31 23 -51 26 l-35 6 -1 -147 c-1
-80 -3 -148 -5 -151 -3 -2 -13 22 -23 54 l-17 59 -187 -3 c-196 -3 -231 2
-249 39 -28 59 -21 94 24 124 23 15 56 18 233 20 113 2 211 5 216 7 11 4 12
508 1 586 -8 57 -56 155 -97 199 -43 44 -110 86 -172 107 -44 15 -143 17 -966
18 -504 0 -970 -2 -1036 -5z m863 -593 c33 -17 102 -83 102 -98 0 -23 39 -2
86 46 42 43 64 56 105 66 168 40 324 -76 305 -229 -18 -147 -126 -297 -376
-521 -98 -88 -96 -87 -133 -54 -66 60 -162 151 -219 209 -255 258 -288 484
-84 581 59 27 161 28 214 0z"/>
<path d="M1320 4833 c-41 -21 -42 -23 -171 -448 -44 -143 -102 -332 -130 -420
-27 -88 -51 -168 -54 -178 -2 -11 -18 -61 -35 -112 -16 -52 -30 -102 -30 -111
0 -36 -18 4 -70 156 -116 343 -111 330 -142 346 -23 12 -63 15 -191 13 -89 -1
-174 -7 -190 -12 -50 -17 -73 -79 -47 -128 21 -38 58 -47 191 -45 l126 1 98
-290 c140 -411 138 -407 168 -429 35 -26 85 -23 113 6 12 13 31 52 42 88 42
132 86 275 88 285 1 6 17 55 34 110 38 121 137 443 155 505 31 107 84 273 89
278 3 3 8 -1 10 -9 10 -31 139 -398 156 -444 19 -52 80 -226 107 -305 19 -56
57 -90 101 -90 38 0 83 43 222 209 l75 90 63 0 c34 1 62 4 63 9 4 40 1 160 -4
168 -7 12 -159 12 -193 1 -12 -4 -58 -50 -103 -102 -45 -52 -85 -95 -89 -95
-4 0 -31 69 -60 153 -30 83 -78 220 -107 302 -29 83 -79 222 -110 309 -50 144
-79 196 -106 196 -4 0 -13 2 -21 5 -7 3 -29 -3 -48 -12z"/>
</g>
</svg>
